<svg width="24" height="24" fill="none" xmlns="http://www.w3.org/2000/svg"><path fill-rule="evenodd" clip-rule="evenodd" d="M6.86 12a5.14 5.14 0 1 1 10.28 0 5.14 5.14 0 0 1-10.28 0zM12 15.33a3.33 3.33 0 1 1 0-6.66 3.33 3.33 0 0 1 0 6.66z" fill="#4b5563"/><path d="M17.34 7.86a1.2 1.2 0 1 0 0-2.4 1.2 1.2 0 0 0 0 2.4z" fill="#4b5563"/><path fill-rule="evenodd" clip-rule="evenodd" d="M12 2c-2.72 0-3.06.01-4.12.06-1.07.05-1.8.22-2.43.47a4.9 4.9 0 0 0-1.77 1.15 4.9 4.9 0 0 0-1.15 1.77 7.34 7.34 0 0 0-.47 2.43C2.01 8.94 2 9.28 2 12s.01 3.06.06 4.12c.05 1.07.22 1.8.47 2.43.25.66.6 1.22 1.15 1.77.55.56 1.11.9 1.77 1.16a7.6 7.6 0 0 0 2.43.46c1.06.05 1.4.06 4.12.06s3.06-.01 4.12-.06a7.34 7.34 0 0 0 2.43-.46 4.9 4.9 0 0 0 1.77-1.16 4.9 4.9 0 0 0 1.16-1.77 7.6 7.6 0 0 0 .46-2.43c.05-1.06.06-1.4.06-4.12s-.01-3.06-.06-4.12a7.34 7.34 0 0 0-.46-2.43 4.9 4.9 0 0 0-1.16-1.77 4.9 4.9 0 0 0-1.77-1.15 7.34 7.34 0 0 0-2.43-.47C15.06 2.01 14.72 2 12 2zm0 1.8c2.67 0 2.99.01 4.04.06.98.04 1.5.2 1.86.34a3.27 3.27 0 0 1 1.9 1.9c.13.35.3.88.34 1.86.05 1.05.06 1.37.06 4.04s-.01 2.99-.06 4.04c-.04.98-.2 1.5-.34 1.86-.19.46-.4.8-.75 1.15a3.1 3.1 0 0 1-1.15.75c-.35.13-.88.3-1.86.34-1.05.05-1.37.06-4.04.06s-2.99-.01-4.04-.06c-.98-.04-1.5-.2-1.86-.34a3.1 3.1 0 0 1-1.15-.75 3.1 3.1 0 0 1-.75-1.15 5.6 5.6 0 0 1-.34-1.86A69.4 69.4 0 0 1 3.8 12c0-2.67.01-2.99.06-4.04.04-.98.2-1.5.34-1.86.19-.46.4-.8.75-1.15A3.1 3.1 0 0 1 6.1 4.2c.35-.13.88-.3 1.86-.34A69.4 69.4 0 0 1 12 3.8z" fill="#4b5563"/></svg>