<svg width="24" height="24" fill="none" xmlns="http://www.w3.org/2000/svg"><path fill-rule="evenodd" clip-rule="evenodd" d="M22 5.8a8.2 8.2 0 0 1-2.36.64 4 4 0 0 0 1.8-2.27c-.79.47-1.66.81-2.6 1a4.1 4.1 0 0 0-7 3.74A11.65 11.65 0 0 1 3.4 4.62a4.08 4.08 0 0 0 1.27 5.48c-.67-.02-1.3-.2-1.86-.51v.05a4.1 4.1 0 0 0 3.3 4.02 4.11 4.11 0 0 1-1.86.07 4.1 4.1 0 0 0 3.83 2.85A8.23 8.23 0 0 1 2 18.28a11.61 11.61 0 0 0 6.29 1.85c7.55 0 11.67-6.26 11.67-11.68v-.53A8.4 8.4 0 0 0 22 5.8z" fill="#4b5563"/></svg>